<svg id="Layer_1" data-name="Layer 1" xmlns="http://www.w3.org/2000/svg" viewBox="0 0 566.93 566.93"><defs><style>.cls-1{fill:none;stroke:#58595b;stroke-linecap:round;stroke-linejoin:round;stroke-width:6px;}</style></defs><title>Iconos pag Web</title><path class="cls-1" d="M389,202.1c0,63.5-45.42,115-83.75,115-32.65,0-83.75-51.48-83.75-115S259,107,305.21,107,389,138.6,389,202.1Z"/><path class="cls-1" d="M353.38,311.94a266.56,266.56,0,0,1-48.17,49.14A266.55,266.55,0,0,1,257,311.94c-53.6,25.89-91.86,85-91.86,85s62.69,25.13,140,25.13,140-25.13,140-25.13S407,337.83,353.38,311.94Z"/><path class="cls-1" d="M513.59,226.29c0,38.9-27.83,70.44-51.3,70.44-20,0-51.3-31.53-51.3-70.44S434,168,462.29,168,513.59,187.39,513.59,226.29Z"/><path class="cls-1" d="M398.73,318.83c9.24-9.26,20.89-18.89,34.05-25.25a163.29,163.29,0,0,0,29.51,30.1,163.29,163.29,0,0,0,29.51-30.1c32.84,15.86,56.27,52.1,56.27,52.1s-38.41,15.4-85.78,15.4a236.27,236.27,0,0,1-26.78-1.56S414,333.76,398.73,318.83Z"/><path class="cls-1" d="M96.83,226.29c0,38.9,27.83,70.44,51.3,70.44,20,0,51.3-31.53,51.3-70.44s-23-58.26-51.3-58.26S96.83,187.39,96.83,226.29Z"/><path class="cls-1" d="M211.7,318.83c-9.24-9.26-20.89-18.89-34.05-25.25a163.29,163.29,0,0,1-29.51,30.1,163.29,163.29,0,0,1-29.51-30.1c-32.84,15.86-56.27,52.1-56.27,52.1s38.41,15.4,85.78,15.4a236.27,236.27,0,0,0,26.78-1.56S196.48,333.76,211.7,318.83Z"/></svg>