<svg id="Layer_1" data-name="Layer 1" xmlns="http://www.w3.org/2000/svg" viewBox="0 0 566.93 566.93"><defs><style>.cls-1{fill:none;stroke:#58595b;stroke-linecap:round;stroke-linejoin:round;stroke-width:5px;}</style></defs><title>Iconos pag Web</title><path class="cls-1" d="M281.23,253.17H253.66a10.1,10.1,0,0,1-10.06-11l.53-6.1a10.1,10.1,0,0,0-10.06-11H140.42a10.1,10.1,0,0,0-10.06,9.22l-.84,9.62a10.1,10.1,0,0,1-10.06,9.22H118a13.47,13.47,0,0,0-13.42,12.29l-.69,7.92"/><path class="cls-1" d="M346.25,409.47l12.39-141.66a13.47,13.47,0,0,0-13.42-14.64H315.63"/><line class="cls-1" x1="142" y1="239.14" x2="231.8" y2="239.14"/><line class="cls-1" x1="140.78" y1="253.17" x2="230.57" y2="253.17"/><path class="cls-1" d="M138.54,314.9H297.8a13.47,13.47,0,0,1,13,10l30.56,114H94.89a10.1,10.1,0,0,1-9.76-7.49L49.34,297.87a10.1,10.1,0,0,1,9.76-12.72h53.39a13.47,13.47,0,0,1,13,10l3.29,12.27A10.1,10.1,0,0,0,138.54,314.9Z"/><line class="cls-1" x1="218.28" y1="383.93" x2="182.09" y2="383.93"/><line class="cls-1" x1="177.42" y1="366.53" x2="213.62" y2="366.53"/><polygon class="cls-1" points="259.14 401.33 245.16 349.13 136.56 349.13 150.55 401.33 259.14 401.33"/><polyline class="cls-1" points="313.72 275.06 338.44 275.06 331.66 352.5"/><polyline class="cls-1" points="138.64 296.28 140.49 275.06 279.31 275.06"/><line class="cls-1" x1="276.62" y1="305.84" x2="282.45" y2="239.14"/><line class="cls-1" x1="295.08" y1="291.47" x2="276.62" y2="305.84"/><line class="cls-1" x1="311.02" y1="305.84" x2="295.08" y2="291.47"/><line class="cls-1" x1="316.86" y1="239.14" x2="311.02" y2="305.84"/><line class="cls-1" x1="282.45" y1="239.14" x2="316.86" y2="239.14"/><polygon class="cls-1" points="402.94 211.02 402.94 130.31 485.48 211.02 402.94 211.02"/><path class="cls-1" d="M358.7,440H477.8a7.59,7.59,0,0,0,7.68-7.51V397.9"/><path class="cls-1" d="M485.48,246.09V211l-82.55-80.71H260.88a7.59,7.59,0,0,0-7.68,7.51V243.69"/><line class="cls-1" x1="405.65" y1="387.75" x2="365.32" y2="387.75"/><line class="cls-1" x1="377.77" y1="353.55" x2="365.32" y2="353.55"/><line class="cls-1" x1="372.65" y1="319.35" x2="365.32" y2="319.35"/><line class="cls-1" x1="381.34" y1="285.16" x2="365.32" y2="285.16"/><line class="cls-1" x1="413.67" y1="250.96" x2="365.32" y2="250.96"/><line class="cls-1" x1="383.58" y1="216.76" x2="286.11" y2="216.76"/><line class="cls-1" x1="379.71" y1="182.57" x2="286.11" y2="182.57"/><circle class="cls-1" cx="454.55" cy="321.99" r="81.94"/><polygon class="cls-1" points="454.56 265.86 469.48 300.6 507.13 304.06 478.71 328.99 487.05 365.87 454.56 346.54 422.06 365.87 430.4 328.99 401.98 304.06 439.63 300.6 454.56 265.86"/></svg>