<svg id="Layer_1" data-name="Layer 1" xmlns="http://www.w3.org/2000/svg" viewBox="0 0 566.93 566.93"><defs><style>.cls-1{fill:none;stroke:#58595b;stroke-linecap:round;stroke-linejoin:round;stroke-width:6px;}</style></defs><title>Iconos pag Web</title><polygon class="cls-1" points="338.85 178.58 338.85 67.76 452.18 178.58 338.85 178.58"/><path class="cls-1" d="M452.18,226.74V178.58L338.85,67.76h-195a10.43,10.43,0,0,0-10.54,10.31V482.69A10.43,10.43,0,0,0,143.8,493H441.64a10.43,10.43,0,0,0,10.54-10.31V435.18"/><line class="cls-1" x1="342.57" y1="421.24" x2="178.44" y2="421.24"/><line class="cls-1" x1="304.29" y1="374.29" x2="178.44" y2="374.29"/><line class="cls-1" x1="297.27" y1="327.34" x2="178.44" y2="327.34"/><line class="cls-1" x1="309.19" y1="280.38" x2="178.44" y2="280.38"/><line class="cls-1" x1="353.59" y1="233.43" x2="178.44" y2="233.43"/><line class="cls-1" x1="312.27" y1="186.48" x2="178.44" y2="186.48"/><line class="cls-1" x1="306.95" y1="139.52" x2="178.44" y2="139.52"/><circle class="cls-1" cx="409.72" cy="330.96" r="112.51"/><polygon class="cls-1" points="491.86 298.86 465.61 268.9 398.78 345.19 360.88 301.92 334.64 331.89 398.78 405.12 425.03 375.16 425.03 375.16 491.86 298.86"/></svg>