<svg id="Layer_1" data-name="Layer 1" xmlns="http://www.w3.org/2000/svg" viewBox="0 0 566.93 566.93"><defs><style>.cls-1{fill:#58595b;}</style></defs><title>Iconos pag Web</title><path class="cls-1" d="M49.8,187.53c26.34,10.88,52.69,9,79.24,4.46,18.37-3.17,36.76-6.4,55.5-6.39a78.86,78.86,0,0,1,25.58,3.78c9.11,3.1,16.64,8.33,21.87,16.53a13.73,13.73,0,0,0,4.61,4.41,115.75,115.75,0,0,1,31.82,28.5c2.33,3.05,3.18,3.5,5.71,0,52.42-73.06,161.21-68.26,207.14,9,43.42,73.06-.13,169-83.9,183.6-48,8.39-87.93-7.16-119.19-44.46-3.32-4-4.07-3-6.66.38-33,42.58-76.44,59.93-128.72,47.54-50.58-12-81.68-45.85-92.48-96.77-6.91-32.56,0-63.21,18.29-91.07,2.16-3.3,2.42-5.22-.19-8.49C56.71,223.9,51.87,206.61,49.8,187.53ZM171.22,421.29a69.56,69.56,0,0,0,7,0,112.86,112.86,0,0,0,12.35-1.7c44.22-9.52,73.39-36.09,83.9-79.85,10.59-44.1-4-80.9-39.22-109.5-2.8-2.27-4.19-1.93-6.15.91A97.59,97.59,0,0,1,209.17,252,82.44,82.44,0,0,1,158,270.35c-24.22.39-48-1.61-69.46-14.28C85,254,83.81,255,82.06,257.81A107.71,107.71,0,0,0,65.64,307C60.77,368.26,109.81,421.49,171.22,421.29ZM348.31,251.41c-5.44,8.05-10.62,15.56-15.6,23.2a6.32,6.32,0,0,1-6.09,3.21c-10.83-.15-21.66.08-32.49-.11-4-.07-4.66.91-3.6,4.82a120.52,120.52,0,0,1-4.44,78.3c-1.59,4-1.14,6.65,1.3,9.88,27.28,36.24,63.31,51.44,108,43.6,59.72-10.46,98.77-74.37,81.77-132.45-.94-3.2-2.38-4.2-5.53-4.15-10.33.14-20.68-.31-31,.19-5.91.29-9.91-1.54-13.59-6.09-6-7.47-6.25-7.25-11.12.89-1.46,2.44-2.23,5.27-6.35,5.19-15-.29-30-.19-45-.07a5,5,0,0,1-5.31-3.38C355.88,266.92,352.2,259.5,348.31,251.41Z"/><path class="cls-1" d="M518.78,139.39c9.11,12.09,15,24.8,16.1,39.59,1.8,24.09-27,52.21-55.74,40.61-7.76-3.13-14.94-7.3-22.26-11.26-13.33-7.21-26.72-14.3-41.11-19.25a66.53,66.53,0,0,0-14.54-3.42c-10.83-1.16-16.41,1.29-22.71,9.86-8-9.61-6.69-29.81,3.29-39.8,15.19-15.21,40.71-24.77,65.54-12,10.23,5.24,19.37,12.37,29.92,17,6.42,2.84,12.91,5.37,20,5.76,7.43.41,12.81-2.58,16-9.51A63.14,63.14,0,0,0,518.78,139.39Z"/><path class="cls-1" d="M371.55,189.63c3.88-7.4,6-14.86,5.3-23-1.1-13.31-19.12-26.11-33.65-17.24a122.35,122.35,0,0,0-11.07,8.11c-6.59,5.11-13.22,10.17-20.58,14.14a36.35,36.35,0,0,1-7.57,3.15c-5.76,1.59-9,.75-13.13-3.37-3.49,5.95-1,16.86,5.21,21.43,9.53,7,24.16,9.92,36.49.78,5.08-3.76,9.41-8.47,14.72-11.95,3.23-2.12,6.52-4.07,10.33-4.91,4-.88,7.15.28,9.45,3.78A34.94,34.94,0,0,1,371.55,189.63Z"/><path class="cls-1" d="M222.73,202.13c11.33,10,19.63,21.33,23.65,35.6,6.55,23.26-16.12,56.54-46.56,50.88-8.23-1.53-16.09-4.19-24-6.61-14.5-4.41-29-8.7-44.11-10.7a66.53,66.53,0,0,0-14.93-.47c-10.84,1-15.83,4.52-20.3,14.17-9.73-7.83-12.47-27.88-4.68-39.66,11.86-17.92,35-32.37,61.84-24.83,11.06,3.11,21.44,8.28,32.71,10.76,6.85,1.51,13.72,2.7,20.76,1.67,7.36-1.08,12-5.07,13.75-12.49A63.14,63.14,0,0,0,222.73,202.13Z"/><path class="cls-1" d="M174.12,389.81a73.65,73.65,0,0,1-35.48-8.71c-5.13-2.69-6.84-6.75-4.8-10.93,2.14-4.39,6.53-5.41,11.89-2.77,27.21,13.41,54.76,7.75,74.76-15.36,3.47-4,7.79-4.79,11.36-2,3.75,2.88,4,7.45.56,11.9C219.19,379.11,196.72,389.88,174.12,389.81Z"/><path class="cls-1" d="M121.81,325.64a13.24,13.24,0,0,1,13.66-13.47,13.62,13.62,0,1,1-13.66,13.47Z"/><path class="cls-1" d="M232.19,309.82a13.72,13.72,0,0,1-13.32,13.44A14.15,14.15,0,0,1,205,309.12c.22-7.22,6.59-13.55,13.49-13.41A13.51,13.51,0,0,1,232.19,309.82Z"/><path class="cls-1" d="M346.8,316.36a13.69,13.69,0,1,1-27.37-.29c.07-6.89,6.65-13.4,13.56-13.41A14.14,14.14,0,0,1,346.8,316.36Z"/><path class="cls-1" d="M404.61,316.63c-.18-7.69,5.47-13.62,13.29-13.94,7.17-.3,13.7,6.11,13.87,13.61a14,14,0,0,1-13.54,13.92C410.67,330.37,404.79,324.5,404.61,316.63Z"/><rect class="cls-1" x="129.48" y="353.94" width="12.63" height="32.5" rx="4.74" ry="4.74" transform="translate(301.54 12.4) rotate(45)"/><rect class="cls-1" x="223.31" y="335.44" width="12.63" height="32.5" rx="4.74" ry="4.74" transform="translate(649.23 370.25) rotate(125.67)"/><path class="cls-1" d="M356.28,385a73.65,73.65,0,0,1-31.57-18.38c-4.16-4-4.65-8.41-1.52-11.84,3.3-3.6,7.79-3.35,12.19.7,22.32,20.55,50.34,22.9,76.05,6.38,4.46-2.87,8.83-2.4,11.47,1.24,2.78,3.82,1.7,8.27-2.83,11.57C402.54,387.49,377.93,391.47,356.28,385Z"/><rect class="cls-1" x="318.74" y="339.13" width="12.63" height="32.5" rx="4.74" ry="4.74" transform="translate(481.54 -100.11) rotate(61.41)"/><rect class="cls-1" x="413.98" y="347.88" width="12.63" height="32.5" rx="4.74" ry="4.74" transform="translate(975.63 393.11) rotate(142.08)"/></svg>