<svg id="Layer_1" data-name="Layer 1" xmlns="http://www.w3.org/2000/svg" viewBox="0 0 566.93 566.93"><defs><style>.cls-1{fill:none;stroke:#58595b;stroke-linecap:round;stroke-linejoin:round;stroke-width:6px;}</style></defs><title>Iconos pag Web</title><circle class="cls-1" cx="344.95" cy="338.24" r="81.02" transform="translate(-138.14 342.99) rotate(-45)"/><circle class="cls-1" cx="344.95" cy="338.24" r="59.7" transform="translate(-138.14 342.99) rotate(-45)"/><polyline class="cls-1" points="393.57 404.2 419.58 430.2 436.92 412.87 410.91 386.86"/><rect class="cls-1" x="434.53" y="410.76" width="39.44" height="73.56" transform="translate(-183.41 452.29) rotate(-45)"/><line class="cls-1" x1="439.18" y1="460.36" x2="465.94" y2="433.6"/><line class="cls-1" x1="426.74" y1="447.92" x2="453.5" y2="421.16"/><polygon class="cls-1" points="361.8 161.06 361.8 82.38 442.27 161.06 361.8 161.06"/><path class="cls-1" d="M434.79,384.31a7.4,7.4,0,0,0,7.49-7.32V161.06L361.8,82.38H223.31a7.4,7.4,0,0,0-7.49,7.32V377a7.4,7.4,0,0,0,7.49,7.32h36.35"/><path class="cls-1" d="M215.83,110.68H195a7.4,7.4,0,0,0-7.49,7.32V405.3a7.4,7.4,0,0,0,7.49,7.32h82.43"/><path class="cls-1" d="M187.52,139H166.7a7.4,7.4,0,0,0-7.49,7.32V433.6a7.4,7.4,0,0,0,7.49,7.32H378.18a7.4,7.4,0,0,0,7.49-7.32v-5.1"/><path class="cls-1" d="M159.21,167.3H138.39a7.4,7.4,0,0,0-7.49,7.32V461.91a7.4,7.4,0,0,0,7.49,7.32H349.87a7.4,7.4,0,0,0,7.49-7.32v-21"/><line class="cls-1" x1="251.14" y1="333.36" x2="247.91" y2="333.36"/><line class="cls-1" x1="255.4" y1="300.02" x2="247.91" y2="300.02"/><line class="cls-1" x1="281.7" y1="266.68" x2="247.91" y2="266.68"/><line class="cls-1" x1="410.19" y1="266.68" x2="406.07" y2="266.68"/><line class="cls-1" x1="410.19" y1="233.34" x2="247.91" y2="233.34"/><line class="cls-1" x1="410.19" y1="200.01" x2="247.91" y2="200.01"/><line class="cls-1" x1="342.93" y1="166.67" x2="247.91" y2="166.67"/><line class="cls-1" x1="339.15" y1="133.33" x2="247.91" y2="133.33"/></svg>