<svg id="Layer_1" data-name="Layer 1" xmlns="http://www.w3.org/2000/svg" viewBox="0 0 566.93 566.93"><defs><style>.cls-1{fill:none;stroke:#58595b;stroke-linecap:round;stroke-linejoin:round;stroke-width:5px;}</style></defs><title>Iconos pag Web</title><path class="cls-1" d="M410.76,234H496C513,234,530,217,530,200V131.8c0-17-17-34.08-34.08-34.08H359.63c-17,0-34.08,17-34.08,34.08V200c0,17,17,34.08,34.08,34.08v51.12Z"/><path class="cls-1" d="M299.91,253.07c0,58.67-42,106.24-77.38,106.24-30.17,0-77.38-47.56-77.38-106.24s34.65-87.88,77.38-87.88S299.91,194.4,299.91,253.07Z"/><path class="cls-1" d="M267,354.56A246.3,246.3,0,0,1,222.52,400,246.3,246.3,0,0,1,178,354.56c-49.53,23.92-84.88,78.58-84.88,78.58s57.93,23.22,129.38,23.22,129.38-23.22,129.38-23.22S316.56,378.49,267,354.56Z"/></svg>