<svg id="Layer_1" data-name="Layer 1" xmlns="http://www.w3.org/2000/svg" viewBox="0 0 566.93 566.93"><defs><style>.cls-1{fill:none;stroke:#58595b;stroke-linecap:round;stroke-linejoin:round;stroke-width:4px;}.cls-2{fill:#58595b;}</style></defs><title>Iconos pag Web</title><path class="cls-1" d="M66.25,438.18a28.08,28.08,0,0,0,19.67,8.24l3.49,0,14.84.07,375,1.65a27.86,27.86,0,0,0,28-27.73l1-230.34-449.07-2-1,230.34A28.08,28.08,0,0,0,66.25,438.18ZM417.77,208.37l64.28.28-.25,57.19-64.28-.28Zm-.32,73,64.28.28-.25,57.18-64.28-.28ZM334.63,208l64.29.28-.25,57.19-64.29-.28Zm-.32,73,64.29.28-.25,57.18-64.29-.28ZM334,354l64.29.28L398,411.47l-64.29-.28ZM251.5,207.64l64.29.28-.25,57.19-64.29-.28Zm-.32,73,64.29.28-.25,57.18-64.29-.28Zm-.32,73,64.29.28-.25,57.18-64.29-.28ZM168.38,207.27l64.29.28-.25,57.19-64.29-.28Zm-.32,73,64.29.28-.25,57.18-64.29-.28Zm-.32,73,64.29.28-.25,57.18-64.29-.28Zm-82.8-73.37,64.29.28L149,337.37l-64.29-.28Zm-.32,73,64.29.28-.25,57.18-64.29-.28Z"/><rect class="cls-2" x="275.57" y="-53.75" width="16.49" height="449.08" transform="translate(111.77 453.85) rotate(-89.75)"/><path class="cls-2" d="M105.84,82.49,91,82.42l-3.49,0a27.84,27.84,0,0,0-28,27.72l-.14,32.36,449.07,2,.14-32.36a27.86,27.86,0,0,0-27.73-28l-47.24-.21-.16,36.46a12.32,12.32,0,0,1-12.38,12.26l-26-.11a12.31,12.31,0,0,1-12.26-12.37L383,83.71l-197.65-.87-.16,36.46a12.32,12.32,0,0,1-12.37,12.26l-26-.11a12.31,12.31,0,0,1-12.26-12.37l.16-36.46Z"/><polygon class="cls-2" points="146.92 119.13 172.9 119.24 173.06 82.78 173.2 50.71 147.23 50.6 147.08 82.67 146.92 119.13"/><polygon class="cls-2" points="395.18 120.22 421.15 120.34 421.31 83.88 421.45 51.8 395.48 51.69 395.34 83.76 395.18 120.22"/><rect class="cls-1" x="171.8" y="203.86" width="57.19" height="64.29" transform="translate(-36.49 435.36) rotate(-89.75)"/><rect class="cls-1" x="254.93" y="204.23" width="57.19" height="64.29" transform="translate(45.9 518.85) rotate(-89.75)"/><rect class="cls-1" x="338.05" y="204.59" width="57.19" height="64.29" transform="translate(128.3 602.34) rotate(-89.75)"/><rect class="cls-1" x="421.19" y="204.97" width="57.19" height="64.28" transform="translate(210.7 685.84) rotate(-89.75)"/><rect class="cls-2" x="88.35" y="276.5" width="57.18" height="64.29" transform="translate(-192.21 424.23) rotate(-89.75)"/><rect class="cls-1" x="171.48" y="276.86" width="57.18" height="64.29" transform="translate(-109.81 507.72) rotate(-89.75)"/><rect class="cls-2" x="254.61" y="277.23" width="57.18" height="64.29" transform="translate(-27.42 591.21) rotate(-89.75)"/><rect class="cls-2" x="337.73" y="277.59" width="57.18" height="64.29" transform="translate(54.98 674.7) rotate(-89.75)"/><rect class="cls-1" x="420.87" y="277.97" width="57.18" height="64.28" transform="translate(137.38 758.19) rotate(-89.75)"/><rect class="cls-1" x="88.03" y="349.5" width="57.18" height="64.29" transform="translate(-265.52 496.58) rotate(-89.75)"/><rect class="cls-2" x="171.16" y="349.86" width="57.18" height="64.29" transform="translate(-183.13 580.07) rotate(-89.75)"/><rect class="cls-1" x="254.29" y="350.23" width="57.18" height="64.29" transform="translate(-100.73 663.56) rotate(-89.75)"/><rect class="cls-1" x="337.41" y="350.59" width="57.18" height="64.29" transform="translate(-18.34 747.05) rotate(-89.75)"/></svg>