<svg id="Layer_1" data-name="Layer 1" xmlns="http://www.w3.org/2000/svg" viewBox="0 0 566.93 566.93"><defs><style>.cls-1{fill:#fff;}</style></defs><title>Iconos pag Web Redes Sociales</title><path class="cls-1" d="M285.61,30.67c141,0,254.85,113.95,254.85,255,0,133.7-102.71,243.48-233.14,254.08-7.2,1.3-14.51,1.3-21.71,1.3a248.31,248.31,0,0,1-55.31-5.94C115.69,509.55,30,407.37,30,285.69c0-141.07,114.67-255,255.56-255m0-13.09C137.46,17.58,16.9,138,16.9,285.69c0,124.42,88.56,234.8,210.48,262.28A272.24,272.24,0,0,0,285.61,554c8,0,16.06,0,24-1.18,136.26-11.06,244-128.34,244-267.16,0-147.73-120.26-268.11-268-268.11Z"/><path class="cls-1" d="M314.57,232.17c3.93-4.64,11.84-8,23.08-8a132.91,132.91,0,0,1,34.85,4.88l9.93-53.53c-20.4-7.14-41.45-9.16-63.22-9.16s-38.9,3.34-52.69,11.3c-13.86,7.61-23.08,16.3-28.31,28.9-5.29,11.3-7.91,30.21-7.91,54v21H188.07v61.15H230.3V535.13a248.31,248.31,0,0,0,55.31,5.94c7.2,0,14.51,0,21.71-1.3v-197h56V281.65h-56V261.9C307.32,246.8,309.34,237.52,314.57,232.17Z"/></svg>