<svg id="Layer_1" data-name="Layer 1" xmlns="http://www.w3.org/2000/svg" viewBox="0 0 566.93 566.93"><defs><style>.cls-1{fill:#fff;}</style></defs><title>Iconos pag Web Redes Sociales</title><path class="cls-1" d="M288.45,492.3c-38.48-.92-77-1.24-115.43-3-26.24-1.17-52.49-3.48-78.55-6.77-29.85-3.77-50.92-24.12-56.15-54.21a492.77,492.77,0,0,1-7-62.41C29.91,335,29.7,304,30.25,273c.49-27.77,2.41-55.56,8.63-82.79,6.61-29,29.08-48.7,58.34-52.37,37.91-4.76,76-6.28,114.13-6.9,41.65-.67,83.32-1.17,125-.67,33.47.4,66.94,2,100.38,3.84a374.2,374.2,0,0,1,46.58,5.28c30.6,5.55,48.37,24.63,54.49,54.89,5.14,25.37,7.21,51.11,7.87,76.89.65,25.64.7,51.32,0,77-.77,27.95-2.66,55.87-8.84,83.28-6.62,29.39-28.3,48.5-58.23,52.24-38.08,4.76-76.34,6.2-114.63,6.91-25.15.47-50.32.09-75.48.09Zm-52.1-259.19V388.47L371.22,311Z"/></svg>