<svg id="Layer_1" data-name="Layer 1" xmlns="http://www.w3.org/2000/svg" viewBox="0 0 566.93 566.93"><defs><style>.cls-1{fill:#fff;}</style></defs><title>Iconos pag Web Redes Sociales</title><path class="cls-1" d="M429,476.75H330.73c0-26.81-.09-53.62.19-80.42.09-8.83-4-12.16-12.33-12.13q-35.13.14-70.25,0c-8.3,0-12.42,3.31-12.33,12.13.28,26.8.16,53.61.19,80.42H138c-1.47-4.78-4.21-9.56-4.23-14.35q-.44-88.45.05-176.9A18.81,18.81,0,0,1,139.33,273c36.51-32.76,73.37-65.15,110.17-97.6,11.25-9.92,22.59-19.75,34.07-29.77,49.14,43.35,97.76,86.14,146.13,129.2,2.3,2,3.53,6.42,3.55,9.72q.31,89.38,0,178.75C433.19,467.81,430.45,472.28,429,476.75Z"/><path class="cls-1" d="M284.39,72.65Q382.46,159.36,480.55,246c5.47,4.83,11.34,9.23,17,13.83v1.85l-22.77,24-191.28-169-191.35,169-22.79-24q0-.93,0-1.85c3.41-2.51,7-4.8,10.2-7.58,13.94-12.18,27.75-24.5,41.6-36.77L282.54,72.65Z"/><path class="cls-1" d="M134.3,100.62h52c0,9.76.16,19.18-.14,28.58-.06,1.81-1.6,3.94-3.05,5.27-15.82,14.51-31.76,28.88-48.77,44.3Z"/></svg>