<svg id="Layer_1" data-name="Layer 1" xmlns="http://www.w3.org/2000/svg" viewBox="0 0 566.93 566.93"><defs><style>.cls-1,.cls-2{fill:#fff;}.cls-2{fill-rule:evenodd;}</style></defs><title>Iconos pag Web Redes Sociales</title><path class="cls-1" d="M284.56,32.55c140.83,0,255.14,114.19,255.14,255.26,0,140.84-114.31,255.26-255.14,255.26-141.07,0-255.26-114.42-255.26-255.26,0-141.07,114.19-255.26,255.26-255.26m0-13.08c-148,0-268.4,120.38-268.4,268.34s120.43,268.34,268.4,268.34S552.78,435.77,552.78,287.81,432.41,19.46,284.56,19.46Z"/><path class="cls-2" d="M130,391.77c24.28,1.55,47.82-2,70-12a126.53,126.53,0,0,0,28.06-16.89,67.36,67.36,0,0,1-29-7.26c-15-7.61-25.57-19.62-32-35.8-1.43-3.57-1.43-3.57,2.51-3.33,10.69,1.06,18.55.83,24.62-1.55-5.82-2-11.3-3.09-15.82-6.07-22.36-12.38-34.25-31.52-36.27-57.22-.24-3,.6-3.33,3.33-2,7.86,4.41,16.42,6.19,26.29,7.14-4.28-3.8-8-6.89-11.29-10.23-18.56-20-23-51.62-10.6-76,1.67-3.33,2.27-3.33,4.53-.71,31.28,36,70.17,57.81,117,65.3,4.76,1,10,1,14.87,2,3.33.48,3.68-1.07,3.2-3.57a67.09,67.09,0,0,1,33.31-70.18c25.46-14.87,58.51-10.23,79,9.76a7.5,7.5,0,0,0,7.38,1.78A125.19,125.19,0,0,0,444.54,161a6.58,6.58,0,0,0,2.85-1.79c-4.76,15.94-14.28,27.72-28.31,37.11,13-1.18,24.62-5.12,36.16-9.39.23,1.55-1,2.5-1.67,3.8a137.34,137.34,0,0,1-27.83,28.43c-2,1.55-2.5,2.86-2.5,5.36.83,49.24-14.87,93-46.27,131.07-29.5,34.62-67.21,55.68-112,62.81-47.59,7.37-92.31-.48-133.46-25.93A2.32,2.32,0,0,0,130,391.77Z"/></svg>